<svg xmlns="http://www.w3.org/2000/svg" width="59" height="59" fill="none"><path d="M17.5 52.5H8.75a2.917 2.917 0 01-2.917-2.917v-8.75a2.917 2.917 0 00-5.833 0v8.75a8.75 8.75 0 008.75 8.75h8.75a2.917 2.917 0 000-5.833zM2.917 20.417A2.917 2.917 0 005.833 17.5V8.75A2.917 2.917 0 018.75 5.833h8.75A2.917 2.917 0 0017.5 0H8.75A8.75 8.75 0 000 8.75v8.75a2.917 2.917 0 002.917 2.917zM49.583 0h-8.75a2.917 2.917 0 000 5.833h8.75A2.916 2.916 0 0152.5 8.75v8.75a2.917 2.917 0 005.833 0V8.75A8.75 8.75 0 0049.583 0zm-8.75 29.167a2.917 2.917 0 00-2.916-2.917h-5.834v-5.833a2.917 2.917 0 00-5.833 0v5.833h-5.833a2.917 2.917 0 100 5.833h5.833v5.834a2.917 2.917 0 005.833 0v-5.834h5.834a2.917 2.917 0 002.916-2.916zm14.584 8.75a2.917 2.917 0 00-2.917 2.916v8.75a2.916 2.916 0 01-2.917 2.917h-8.75a2.917 2.917 0 000 5.833h8.75a8.75 8.75 0 008.75-8.75v-8.75a2.917 2.917 0 00-2.916-2.916z" fill="#000"/></svg>