<svg xmlns="http://www.w3.org/2000/svg" width="54" height="46" fill="none"><path d="M33.204 29.367l-8.905 9.59-3.492-3.76a2.704 2.704 0 00-.881-.638 2.54 2.54 0 00-2.082 0c-.33.148-.63.365-.88.638a3.033 3.033 0 00-.788 2.055c0 .77.283 1.51.787 2.056l5.414 5.83c.252.273.55.49.88.638a2.54 2.54 0 002.083 0c.33-.148.629-.365.88-.638l10.828-11.66a3.033 3.033 0 00.787-2.056c0-.77-.283-1.509-.787-2.055a2.703 2.703 0 00-.88-.638 2.54 2.54 0 00-2.083 0c-.33.148-.63.365-.88.638zm11.18-17.11c-1.656-4.094-4.513-7.49-8.133-9.667C32.632.413 28.45-.425 24.345.203c-4.104.629-7.904 2.69-10.817 5.868-2.912 3.177-4.777 7.296-5.307 11.724-2.258.603-4.275 1.973-5.753 3.907C.99 23.636.13 26.032.013 28.533c-.115 2.502.52 4.977 1.814 7.06C3.119 37.675 5 39.253 7.19 40.095a2.532 2.532 0 002.259.127c.363-.156.69-.394.96-.699.269-.304.474-.668.6-1.066a3.127 3.127 0 00-.229-2.423 2.843 2.843 0 00-.787-.914 2.604 2.604 0 00-1.07-.476 5.485 5.485 0 01-2.606-2.157 6.15 6.15 0 01-.967-3.382c0-1.546.57-3.03 1.585-4.122 1.016-1.094 2.393-1.708 3.829-1.708.717 0 1.406-.307 1.913-.854a3.033 3.033 0 00.793-2.061c.014-3.445 1.16-6.774 3.235-9.396 2.076-2.622 4.947-4.367 8.103-4.926 3.157-.559 6.396.104 9.142 1.872 2.745 1.768 4.821 4.527 5.858 7.786.159.495.439.935.81 1.274.372.339.821.563 1.301.65 1.803.367 3.438 1.38 4.637 2.875 1.2 1.496 1.894 3.384 1.97 5.359a9.224 9.224 0 01-1.555 5.514c-1.081 1.596-2.633 2.75-4.402 3.276a2.69 2.69 0 00-1.815 1.111 3.104 3.104 0 00-.553 2.168c.09.773.46 1.476 1.032 1.954a2.589 2.589 0 002.013.597h.676c2.85-.811 5.374-2.6 7.193-5.097 1.818-2.497 2.83-5.565 2.882-8.737.052-3.173-.859-6.277-2.594-8.841-1.735-2.565-4.2-4.45-7.02-5.368v-.175z" fill="#000"/></svg>