<svg xmlns="http://www.w3.org/2000/svg" width="12" height="10" fill="none"><path d="M6.415 8.96a.671.671 0 00-.193-.122.583.583 0 00-.636.123.612.612 0 00-.169.414.583.583 0 00.17.414.583.583 0 00.95-.636.583.583 0 00-.122-.192zM6 5.293a.583.583 0 00-.583.583v1.75a.583.583 0 001.167 0v-1.75A.583.583 0 006 5.292zm3.745-2.794a4.083 4.083 0 00-7.793 1.108A2.333 2.333 0 002.5 8.208h1.167a.583.583 0 000-1.166H2.5a1.167 1.167 0 010-2.334.583.583 0 00.584-.583 2.917 2.917 0 015.676-.94.583.583 0 00.455.386 1.75 1.75 0 01-.298 3.47h-.583a.583.583 0 100 1.167h.583a2.917 2.917 0 00.828-5.71z" fill="#004B8F"/></svg>