<svg width="152" height="120" fill="none" xmlns="http://www.w3.org/2000/svg"><circle cx="76" cy="52" r="52" fill="#EAECF0"/><g filter="url(#prefix__filter0_dd_2494_28312)"><path d="M77.6 16c-10.773 0-20.302 5.323-26.101 13.483A25.672 25.672 0 0045.6 28.8C31.461 28.8 20 40.261 20 54.4 20 68.539 31.462 80 45.6 80h64c12.371 0 22.4-10.029 22.4-22.4 0-12.371-10.029-22.4-22.4-22.4-.879 0-1.746.05-2.598.149C102.098 23.968 90.78 16 77.6 16z" fill="#F9FAFB"/><circle cx="45.6" cy="54.401" fill="url(#prefix__paint0_linear_2494_28312)" r="25.6"/><circle cx="77.6" cy="48" r="32" fill="url(#prefix__paint1_linear_2494_28312)"/><circle cx="109.599" cy="57.599" fill="url(#prefix__paint2_linear_2494_28312)" r="22.4"/></g><circle cx="21" cy="19" r="5" fill="#F2F4F7"/><circle cx="18" cy="109" r="7" fill="#F2F4F7"/><circle cx="145" cy="35" r="7" fill="#F2F4F7"/><circle cx="134" cy="8" r="4" fill="#F2F4F7"/><g filter="url(#prefix__filter1_b_2494_28312)"><rect x="52" y="62" width="48" height="48" rx="24" fill="#344054" fill-opacity=".4"/><g clip-path="url(#prefix__clip0_2494_28312)"><path d="M80 90.001l-4-4m0 0l-4 4m4-4v9m8.39-2.61a5 5 0 00-2.39-9.39h-1.26a8.001 8.001 0 10-13.74 7.3" stroke="#fff" stroke-width="2" stroke-linecap="round" stroke-linejoin="round"/></g></g><defs><linearGradient id="prefix__paint0_linear_2494_28312" x1="25.943" y1="37.486" x2="71.2" y2="80.001" gradientUnits="userSpaceOnUse"><stop stop-color="#D0D5DD"/><stop offset=".351" stop-color="#fff" stop-opacity="0"/></linearGradient><linearGradient id="prefix__paint1_linear_2494_28312" x1="53.028" y1="26.857" x2="109.6" y2="80" gradientUnits="userSpaceOnUse"><stop stop-color="#D0D5DD"/><stop offset=".351" stop-color="#fff" stop-opacity="0"/></linearGradient><linearGradient id="prefix__paint2_linear_2494_28312" x1="92.399" y1="42.799" x2="131.999" y2="79.999" gradientUnits="userSpaceOnUse"><stop stop-color="#D0D5DD"/><stop offset=".351" stop-color="#fff" stop-opacity="0"/></linearGradient><filter id="prefix__filter0_dd_2494_28312" x="0" y="16" width="152" height="104" filterUnits="userSpaceOnUse" color-interpolation-filters="sRGB"><feFlood flood-opacity="0" result="BackgroundImageFix"/><feColorMatrix in="SourceAlpha" values="0 0 0 0 0 0 0 0 0 0 0 0 0 0 0 0 0 0 127 0" result="hardAlpha"/><feMorphology radius="4" in="SourceAlpha" result="effect1_dropShadow_2494_28312"/><feOffset dy="8"/><feGaussianBlur stdDeviation="4"/><feColorMatrix values="0 0 0 0 0.0627451 0 0 0 0 0.0941176 0 0 0 0 0.156863 0 0 0 0.03 0"/><feBlend in2="BackgroundImageFix" result="effect1_dropShadow_2494_28312"/><feColorMatrix in="SourceAlpha" values="0 0 0 0 0 0 0 0 0 0 0 0 0 0 0 0 0 0 127 0" result="hardAlpha"/><feMorphology radius="4" in="SourceAlpha" result="effect2_dropShadow_2494_28312"/><feOffset dy="20"/><feGaussianBlur stdDeviation="12"/><feColorMatrix values="0 0 0 0 0.0627451 0 0 0 0 0.0941176 0 0 0 0 0.156863 0 0 0 0.08 0"/><feBlend in2="effect1_dropShadow_2494_28312" result="effect2_dropShadow_2494_28312"/><feBlend in="SourceGraphic" in2="effect2_dropShadow_2494_28312" result="shape"/></filter><filter id="prefix__filter1_b_2494_28312" x="44" y="54" width="64" height="64" filterUnits="userSpaceOnUse" color-interpolation-filters="sRGB"><feFlood flood-opacity="0" result="BackgroundImageFix"/><feGaussianBlur in="BackgroundImageFix" stdDeviation="4"/><feComposite in2="SourceAlpha" operator="in" result="effect1_backgroundBlur_2494_28312"/><feBlend in="SourceGraphic" in2="effect1_backgroundBlur_2494_28312" result="shape"/></filter><clipPath id="prefix__clip0_2494_28312"><path fill="#fff" transform="translate(64 74)" d="M0 0h24v24H0z"/></clipPath></defs></svg>