<svg xmlns="http://www.w3.org/2000/svg" width="14" height="16" fill="none"><path d="M3 0C1.34 0 0 1.338 0 2.996c0 1.319.82 2.397 2 2.817v4.374c-1.18.4-2 1.498-2 2.817A2.994 2.994 0 003 16c1.66 0 3-1.338 3-2.996 0-1.199-.68-2.197-1.68-2.677.18-.18.42-.32.68-.32h4c1.64 0 3-1.358 3-2.996V5.833c1.18-.4 2-1.498 2-2.817A2.994 2.994 0 0011 .02c-1.66 0-3 1.338-3 2.996 0 1.319.82 2.397 2 2.817V7.01a.99.99 0 01-1 .999H5c-.34 0-.7.08-1 .18V5.813c1.18-.4 2-1.498 2-2.817A2.994 2.994 0 003 0z" fill="#282f53"/></svg>