<svg xmlns="http://www.w3.org/2000/svg" width="20" height="20" fill="none"><path d="M19.665.975a.908.908 0 00-.65-.647 10.302 10.302 0 00-5.682.15 10.262 10.262 0 00-4.73 3.14L7.587 4.819l-2.375-.57a2.542 2.542 0 00-1.776.04 2.528 2.528 0 00-1.312 1.192L.118 9.022a.905.905 0 00.603 1.334l2.802.598c-.238.72-.407 1.46-.507 2.21a.905.905 0 00.26.76l2.827 2.814a.91.91 0 00.724.262c.77-.069 1.532-.218 2.271-.444l.587 2.726a.907.907 0 00.933.717.915.915 0 00.407-.116l3.56-2a2.759 2.759 0 001.118-1.296c.226-.54.273-1.136.136-1.703l-.61-2.505 1.129-1.033a10.17 10.17 0 003.163-4.708c.585-1.836.635-3.8.144-5.663zM2.315 8.84l1.419-2.506a.752.752 0 01.975-.34l1.566.377-.593.701c-.562.67-1.047 1.4-1.449 2.177L2.315 8.84zm11.37 7.465l-2.476 1.39-.392-1.82a10.347 10.347 0 002.2-1.47l.678-.62.368 1.51a.942.942 0 01-.378 1.01zm1.472-6.324l-3.36 3.075a8.93 8.93 0 01-4.714 2.092l-2.192-2.183A9.906 9.906 0 017.08 8.237l1.53-1.81a.875.875 0 00.071-.083L9.99 4.797A8.46 8.46 0 0113.622 2.3a8.493 8.493 0 014.4-.336 8.337 8.337 0 01-.333 4.398 8.37 8.37 0 01-2.532 3.618zm-.842-5.596a1.372 1.372 0 00-1.263.84 1.357 1.357 0 00.296 1.485 1.37 1.37 0 002.335-.963 1.356 1.356 0 00-.844-1.258 1.373 1.373 0 00-.524-.104z" fill="#fff"/></svg>