<svg width="1459" height="172" fill="none" xmlns="http://www.w3.org/2000/svg"><path d="M56.3 69.24l-8-2.89c-6.6-2.4-11.2-4.5-13.7-6.31a8.07 8.07 0 01-3.8-7.1 7.19 7.19 0 014.1-6.5 19.17 19.17 0 019.6-2.3c7.9 0 14.4 3.2 19.6 9.6l16.6-17.89c-9.7-10.61-21.9-15.9-36.5-15.9-11.5 0-20.9 3.2-28.2 9.6-7.3 6.4-10.9 15.1-10.9 26 0 15.7 9.534 26.8 28.6 33.3l8 2.8c5.6 1.9 9.7 4 12.1 6.2a10.347 10.347 0 013.7 7.699 8.082 8.082 0 01-3.79 6.9c-2.5 1.8-5.8 2.7-10 2.7a26.986 26.986 0 01-12.9-3.6 30.492 30.492 0 01-10.6-9.6l-19.5 16.8a46.148 46.148 0 0017.6 15.2 52.633 52.633 0 0024.3 5.4c11.794 0 21.494-3.3 29.1-9.9 7.6-6.6 11.4-15.2 11.4-25.7.29-16.43-8.71-27.9-26.81-34.51zM136.402 116.44a17.005 17.005 0 01-12.9-5.5 20.061 20.061 0 01-5.3-14 19.192 19.192 0 015.3-14 16.99 16.99 0 0112.9-5.5c7.9 0 13.6 4.1 17.1 12.2l21.1-11.4a42.271 42.271 0 00-38.1-23.8c-11.9 0-22 4-30.1 12-8.1 8-12.3 18.2-12.3 30.5s4.1 22.4 12.3 30.4c8.2 8 18.2 12 30.1 12a41.889 41.889 0 0022.6-6.5 40.915 40.915 0 0015.5-17.2l-21.1-11.4c-3.6 8.08-9.2 12.2-17.1 12.2zM254.1 66.74a41.9 41.9 0 00-59.3 0c-8.2 8.2-12.3 18.2-12.3 30.2s4.11 22 12.3 30.2a41.898 41.898 0 0059.3 0c8.2-8.2 12.3-18.2 12.3-30.2s-4.1-22-12.3-30.2zm-17 44.3a17.697 17.697 0 01-25 .41l-.4-.41c-3.3-3.6-5-8.3-5-14.19 0-5.89 1.7-10.61 5-14.11a17.68 17.68 0 0125-.39l.4.39c3.3 3.61 5 8.3 5 14.11 0 5.81-1.6 10.59-5 14.19zM331.601 56.24v39.5c0 14.2-5 21.3-15 21.3-8.2 0-12.3-6.19-12.3-18.69V56.24h-24.1v46.3c0 11.31 2.6 20.2 7.8 26.81 5.2 6.61 12.7 9.9 22.3 9.9 9.6 0 16.7-3.4 21.2-10.1v8.3h24.1v-81.3h-24v.09zM430.601 78.32V57.04h-22.3v-22.6h-24.1v22.6h-15.9v21.28h15.9v30.189c0 10 3 17.604 9 22.81 6 5.19 13.7 7.9 23.1 7.9 6.1 0 10.8-.5 14.4-1.6v-21.8a22.051 22.051 0 01-8.8 1.5c-4.79 0-8.2-1.1-10.4-3.31-2.2-2.21-3.2-5.69-3.2-10.6v-25.17h22.3v.08zM468.802 40.85a23.77 23.77 0 014.7-7.11 22.1 22.1 0 017-4.7 21.53 21.53 0 018.7-1.6h12v-12.8h-12a32.538 32.538 0 00-13.4 2.8 36.558 36.558 0 00-11.1 7.6 34.476 34.476 0 00-10.1 24.81v9.39h-11v12.8h11v67.409h12.6v-67.41h27.7v-12.8h-27.7v-9.39a22.73 22.73 0 011.6-9zM515.5 23.139v116.1h12.8v-116.1h-12.8zM621.2 79.04a40.887 40.887 0 00-8.6-13.39 38.115 38.115 0 00-12.7-8.61 42.652 42.652 0 00-15.8-3 39.15 39.15 0 00-28.4 12.1 42.842 42.842 0 00-8.7 13.5 45.554 45.554 0 00-3.2 17.1 42.695 42.695 0 003.2 16.899 41.17 41.17 0 008.7 13.5 39.42 39.42 0 0044.2 9 40.738 40.738 0 0012.8-8.9 42.541 42.541 0 008.6-13.5 44.468 44.468 0 003.2-16.89c.019-6.09-1.1-12.13-3.3-17.81zm-11.7 29.599a27.1 27.1 0 01-25.4 17.7 26.844 26.844 0 01-10.8-2.3 28 28 0 01-14.5-15.7 32.641 32.641 0 01-2.1-11.6c-.01-4.06.701-8.089 2.1-11.9a28.494 28.494 0 015.8-9.4 25.644 25.644 0 018.8-6.2 28.06 28.06 0 0121.3 0 25.665 25.665 0 018.8 6.11 30.335 30.335 0 015.9 9.39 34.467 34.467 0 01.1 23.9zM669.701.44h-5v153.099h5V.439zM800.072 33.679a56.89 56.89 0 00-42.39-18.36h-48.08v124h48.08a56.911 56.911 0 0042.39-18.35c10.58-11.49 16.41-27 16.41-43.65s-5.83-32.16-16.41-43.64zm-42.39 85.64h-27.6v-84h27.6c22.3 0 38.48 17.66 38.48 42s-16.19 42-38.48 42zM895.971 111.4c-3.92 7.17-12.3 10-22.42 10-13 0-22.81-6.84-26.53-17.92h71.09v-6c0-.51 0-1 .07-1.54 0-.69.09-1.47.09-2.3a50.155 50.155 0 00-12.13-33.22 43.803 43.803 0 00-33.39-14.86c-27 0-47.44 20.53-47.44 47.76 0 27.68 20.22 47.76 48.08 47.76 17.14 0 32.1-7.84 40-21l3.12-5.18m-69.64-31.28c3.52-11.23 13.27-18.4 25.86-18.4 11.83 0 20.75 7 24 18.4h-49.86zM979.761 45.559a44.921 44.921 0 00-28.4 9.77v-8.01h-20v124h20v-40a44.875 44.875 0 0028.4 9.77c26.599 0 47.439-21 47.439-47.76 0-26.76-20.84-47.77-47.439-47.77zm-.48 75.84a28.084 28.084 0 01-26.056-17.223 28.074 28.074 0 01-1.663-16.237 28.074 28.074 0 0122.022-22.148 28.081 28.081 0 0128.876 11.91 28.096 28.096 0 014.74 15.618c.05 3.688-.63 7.349-2.02 10.768a27.69 27.69 0 01-25.899 17.312zM1060.95 10.52h-20v128.8h20V10.52zM1122.63 45.559c-27 0-48.08 21-48.08 47.76 0 26.76 21.12 47.76 48.08 47.76 26.96 0 47.92-21 47.92-47.76 0-26.76-21.04-47.76-47.92-47.76zm0 75.84c-7.45 0-14.59-2.959-19.85-8.225a28.068 28.068 0 010-39.711 28.052 28.052 0 0119.85-8.224c15.57 0 27.76 12.34 27.76 28.08 0 15.74-12.19 28.08-27.76 28.08zM1262.97 47.32l-37.81 95.57c-7 17.81-20.38 28.52-35.22 28.52-.83 0-1.68 0-2.52-.11l-5.52-.45v-19.61l6.54.59c9.54.85 15.23-9.09 17.78-15.09l.76-1.85-39.56-87.57h21.8l28 61.78 24.2-61.78h21.55z" fill="#fff"/><path d="M1448.86 96.64h-135.4a10.01 10.01 0 01-7.07-2.93 9.981 9.981 0 01-2.93-7.07v-76.2a9.982 9.982 0 012.93-7.072 10.01 10.01 0 017.07-2.929h135.4c2.65 0 5.2 1.054 7.07 2.93a9.982 9.982 0 012.93 7.07v76.2a9.981 9.981 0 01-2.93 7.072 9.992 9.992 0 01-7.07 2.928z" fill="#3A3EB1"/><path d="M1333.46 66.14v-35.7h4.5v17.8l-.8 5.8.8 5.81v6.39h-4.5v-.1zm12.5.5c-1.69.003-3.37-.373-4.9-1.1a8.772 8.772 0 01-3.5-3.1 8.944 8.944 0 01-1.5-4.5v-7.2a8.997 8.997 0 011.5-4.6 10.535 10.535 0 013.5-3.1 9.982 9.982 0 014.8-1.1c2.08-.04 4.13.514 5.9 1.6a11.109 11.109 0 014.1 4.5c.99 1.954 1.5 4.111 1.5 6.3 0 2.188-.51 4.345-1.5 6.3a11.629 11.629 0 01-4.1 4.4 10.324 10.324 0 01-5.79 1.6h-.01zm-.8-4.3a8.769 8.769 0 004-1 8.321 8.321 0 002.7-2.9 8.103 8.103 0 001-4.2 8.103 8.103 0 00-1-4.2 6.92 6.92 0 00-2.7-2.89 7.435 7.435 0 00-4-1 7.097 7.097 0 00-3.9 1 8.413 8.413 0 00-2.7 2.89 9.814 9.814 0 00-1 4.188 9.719 9.719 0 00.9 4.212 6.926 6.926 0 002.7 2.9c1.23.661 2.61.999 4 .98v.02zM1373.56 66.64c-2.24.052-4.45-.5-6.4-1.6a12.666 12.666 0 01-4.5-4.4 12.505 12.505 0 01-1.7-6.4 12.3 12.3 0 011.6-6.3 12.018 12.018 0 014.48-4.446 12.027 12.027 0 016.12-1.555c1.99-.05 3.96.444 5.68 1.431 1.73.988 3.16 2.43 4.12 4.17a13.481 13.481 0 011.4 6.11v1.1a6.36 6.36 0 01-.2 1.3h-20v-3.8h17.6l-1.6 1.5a8.452 8.452 0 00-.9-4.1 6.709 6.709 0 00-2.4-2.61 7.37 7.37 0 00-3.8-.89 7.998 7.998 0 00-4.1 1 6.625 6.625 0 00-2.7 2.8 9.286 9.286 0 00-1 4.2 8.926 8.926 0 001 4.39 7.781 7.781 0 002.8 2.9 8.43 8.43 0 004.2 1c1.27.03 2.53-.21 3.7-.7a8.672 8.672 0 002.9-2.1l2.9 2.9a11.861 11.861 0 01-4.14 3.074 11.874 11.874 0 01-5.06 1.025zM1386.46 46.44v-4.12h16.2v4.1l-16.2.02zm5.8 19.7v-33.7h4.5v33.7h-4.5zM1416.36 66.64c-2.08.054-4.13-.503-5.9-1.6a12.317 12.317 0 01-4.1-4.4 14.064 14.064 0 01-1.5-6.3c0-2.189.52-4.346 1.5-6.3.98-1.811 2.39-3.356 4.1-4.5a10.888 10.888 0 015.9-1.6c1.66-.015 3.31.361 4.8 1.1 1.4.7 2.57 1.773 3.4 3.1a8.643 8.643 0 011.4 4.6v7.2a9.46 9.46 0 01-1.4 4.5 8.49 8.49 0 01-3.4 3.1c-1.49.749-3.13 1.126-4.8 1.1zm.8-4.3a7.108 7.108 0 005.4-2.3 8.206 8.206 0 002-5.8 9.24 9.24 0 00-.9-4.2 7.334 7.334 0 00-2.6-2.9 7.097 7.097 0 00-3.9-1 7.675 7.675 0 00-4 1 7.593 7.593 0 00-2.7 2.9c-.66 1.302-1 2.74-1 4.2a8.202 8.202 0 001 4.2 8.415 8.415 0 002.7 2.9 7.668 7.668 0 004 .98v.02zm7.1 3.8v-6.4l.9-5.8-.9-5.8v-5.82h4.5v23.8l-4.5.02z" fill="#fff"/></svg>