<svg xmlns="http://www.w3.org/2000/svg" width="12" height="13" fill="none"><path d="M3.577 2.474l-1.364.772.772-1.364L2.213.518l1.364.772L4.941.518l-.772 1.364.772 1.364-1.364-.772zm6.588 5.404l1.364-.772-.772 1.364.772 1.364-1.364-.772-1.364.772.772-1.364-.772-1.364 1.364.772zm1.364-7.36l-.772 1.364.772 1.364-1.364-.772-1.364.772.772-1.364L8.801.518l1.364.772 1.364-.772zM6.794 6.437l1.338-1.338-1.184-1.184L5.61 5.253l1.184 1.184zm.566-3.011l1.261 1.26c.12.121.18.254.18.4 0 .146-.06.279-.18.399l-6.382 6.382a.553.553 0 01-.399.18.554.554 0 01-.399-.18l-1.26-1.261a.554.554 0 01-.181-.4c0-.145.06-.278.18-.398l6.382-6.382c.12-.12.253-.18.4-.18.145 0 .278.06.398.18z" fill="#fff"/></svg>