<svg width="800" height="800" viewBox="0 0 16 16" fill="none" xmlns="http://www.w3.org/2000/svg"><path d="M.828.136a.762.762 0 011.06.192L3.58 2.772 5.483.297a.762.762 0 011.208.93L4.31 4.323V7.11a.762.762 0 01-1.524 0v-2.81L.636 1.197A.762.762 0 01.828.136zM8.881 0c.302 0 .576.179.697.455l2.794 6.35a.762.762 0 11-1.395.613l-.694-1.577H7.479l-.693 1.577a.762.762 0 01-1.395-.614L8.184.455A.762.762 0 018.88 0zm-.732 4.318h1.464l-.732-1.664-.732 1.664zm1.456 4.348a.762.762 0 01.546.73v5.842a.762.762 0 11-1.524 0v-3.261l-1.392 2.151a.762.762 0 01-1.25.043L4.31 11.937v3.301a.762.762 0 11-1.524 0V9.651a.762.762 0 011.371-.457l2.392 3.189 2.2-3.4a.762.762 0 01.856-.317zm2.324-.031c.42 0 .761.341.761.762v5.08h2.032a.762.762 0 110 1.523H11.93a.762.762 0 01-.762-.762V9.397c0-.42.34-.762.762-.762z" fill="#000"/></svg>